<svg xmlns="http://www.w3.org/2000/svg" xmlns:xlink="http://www.w3.org/1999/xlink" version="1.1" width="1000" height="1000" viewBox="0 0 1000 1000" xml:space="preserve">
<desc>Created with Fabric.js 3.5.0</desc>
<defs>
</defs>
<rect x="0" y="0" width="100%" height="100%" fill="rgba(255,255,255,0)"/>
<g transform="matrix(1 0 0 1 500 155.5227)" style="" id="868193">
		
<path xml:space="preserve" font-family="Montaga" font-size="183" font-style="normal" font-weight="normal" style="stroke: none; stroke-width: 0; stroke-dasharray: none; stroke-linecap: butt; stroke-dashoffset: 0; stroke-linejoin: miter; stroke-miterlimit: 4; is-custom-font: none; font-file-url: none; fill: rgb(36,36,69); fill-rule: nonzero; opacity: 1; white-space: pre;" d="M-450.96 61.15L-450.96 61.15Q-474.93 61.15-490.94 42.66Q-506.96 24.18-506.96 0.03L-506.96 0.03Q-506.96-14.98-500.37-28.89Q-493.78-42.80-483.44-52.50Q-473.10-62.19-460.57-68.05Q-448.03-73.91-436.32-73.91L-436.32-73.91Q-412.53-73.91-396.42-55.42Q-380.32-36.94-380.32-12.78L-380.32-12.78Q-380.32 5.15-390.02 22.26Q-399.72 39.37-416.28 50.26Q-432.84 61.15-450.96 61.15ZM-439.61 47.24L-439.61 47.24Q-419.66 47.24-406.03 32.60Q-392.40 17.96-392.40-3.63Q-392.40-25.23-408.23-42.43Q-424.06-59.63-446.57-59.63L-446.57-59.63Q-465.78-59.63-480.33-45.82Q-494.88-32.00-494.88-12.78L-494.88-12.78Q-494.88 12.10-479.60 29.67Q-464.32 47.24-439.61 47.24ZM-305.29-60.36L-335.67-58.53L-335.67 41.02Q-325.05 47.24-306.75 47.24L-306.75 47.24Q-284.98 47.24-268.32 35.34L-268.32 35.34Q-259.91 29.31-254.96 18.51Q-250.02 7.71-250.02-5.92Q-250.02-19.56-255.42-30.17Q-260.82-40.78-269.42-47.19L-269.42-47.19Q-286.81-60.36-305.29-60.36L-305.29-60.36ZM-366.41-70.61L-338.23-70.61L-292.85-72.44Q-267.41-72.44-252.68-55.97Q-237.95-39.50-237.95-11.96Q-237.95 15.58-259.08 36.53Q-280.22 57.49-308.58 57.49L-308.58 57.49L-366.41 57.49L-366.41 52.00L-360.19 52.00Q-354.70 52.00-353.05 49.98Q-351.41 47.97-351.41 43.95L-351.41 43.95L-351.41-57.07Q-351.41-61.28-353.14-63.20Q-354.88-65.12-360.19-65.12L-360.19-65.12L-366.41-65.12L-366.41-70.61ZM-119.00 4.78L-119.00 4.78L-119.00-57.07Q-119.00-65.12-130.34-65.12L-130.34-65.12L-136.20-65.12L-136.20-70.61L-92.28-70.61L-92.28-65.12L-99.23-65.12Q-105.27-65.12-108.29-62.83Q-111.31-60.55-111.31-57.07L-111.31-57.07L-111.31 4.78Q-111.31 18.69-116.34 29.95Q-121.37 41.20-129.24 47.79L-129.24 47.79Q-145.53 61.15-163.65 61.15Q-181.76 61.15-195.76 49.80Q-209.76 38.46-209.76 23.08L-209.76 23.08L-209.76-57.07Q-209.76-59.82-210.13-61.28Q-210.50-62.74-212.51-63.93Q-214.52-65.12-218.55-65.12L-218.55-65.12L-224.77-65.12L-224.77-70.61L-177.92-70.61L-177.92-65.12L-184.88-65.12Q-188.90-65.12-190.91-63.93Q-192.93-62.74-193.29-61.28Q-193.66-59.82-193.66-57.07L-193.66-57.07L-193.66 7.35Q-193.66 27.66-184.42 36.72Q-175.18 45.78-156.69 45.78L-156.69 45.78Q-148.09 45.78-140.96 42.85Q-133.82 39.92-129.52 35.89Q-125.22 31.87-122.11 23.72Q-119.00 15.58-119.00 4.78ZM40.76-51.95L-0.23 55.66Q-0.41 55.66-1.14 55.66Q-1.88 55.66-6.82 59.32L-6.82 59.32L-48.91-50.85L-57.69 45.04Q-58.06 47.97-54.95 49.98Q-51.83 52.00-46.34 52.00L-46.34 52.00L-38.66 52.00L-38.66 57.49L-82.58 57.49L-82.58 52.00L-76.72 52.00Q-66.11 52.00-65.38 43.95L-65.38 43.95L-56.23-57.07Q-55.86-60.55-58.70-62.83Q-61.53-65.12-67.57-65.12L-67.57-65.12L-73.43-65.12L-73.43-70.61L-39.02-70.61L0.14 32.60L39.67-70.61L72.61-70.61L72.61-65.49L65.29-65.49Q56.50-65.49 56.50-58.72L56.50-58.72Q56.50-58.17 56.50-57.44L56.50-57.44L64.92 43.95Q65.29 48.15 67.02 50.08Q68.76 52.00 73.34 52.00L73.34 52.00L80.66 52.00L80.66 57.49L33.81 57.49L33.81 52.00L40.03 52.00Q45.16 52.00 46.99 50.35Q48.82 48.70 48.82 46.78Q48.82 44.86 48.82 43.95L48.82 43.95L40.76-51.95ZM146.54 61.15L146.54 61.15Q122.56 61.15 106.55 42.66Q90.54 24.18 90.54 0.03L90.54 0.03Q90.54-14.98 97.13-28.89Q103.72-42.80 114.05-52.50Q124.39-62.19 136.93-68.05Q149.47-73.91 161.18-73.91L161.18-73.91Q184.97-73.91 201.07-55.42Q217.18-36.94 217.18-12.78L217.18-12.78Q217.18 5.15 207.48 22.26Q197.78 39.37 181.22 50.26Q164.65 61.15 146.54 61.15ZM157.88 47.24L157.88 47.24Q177.83 47.24 191.46 32.60Q205.10 17.96 205.10-3.63Q205.10-25.23 189.27-42.43Q173.44-59.63 150.93-59.63L150.93-59.63Q131.71-59.63 117.17-45.82Q102.62-32.00 102.62-12.78L102.62-12.78Q102.62 12.10 117.90 29.67Q133.18 47.24 157.88 47.24ZM292.21-60.36L261.83-58.53L261.83 41.02Q272.44 47.24 290.74 47.24L290.74 47.24Q312.52 47.24 329.17 35.34L329.17 35.34Q337.59 29.31 342.53 18.51Q347.47 7.71 347.47-5.92Q347.47-19.56 342.07-30.17Q336.67-40.78 328.07-47.19L328.07-47.19Q310.69-60.36 292.21-60.36L292.21-60.36ZM231.08-70.61L259.27-70.61L304.65-72.44Q330.09-72.44 344.82-55.97Q359.55-39.50 359.55-11.96Q359.55 15.58 338.41 36.53Q317.28 57.49 288.91 57.49L288.91 57.49L231.08 57.49L231.08 52.00L237.31 52.00Q242.80 52.00 244.44 49.98Q246.09 47.97 246.09 43.95L246.09 43.95L246.09-57.07Q246.09-61.28 244.35-63.20Q242.61-65.12 237.31-65.12L237.31-65.12L231.08-65.12L231.08-70.61ZM478.50 4.78L478.50 4.78L478.50-57.07Q478.50-65.12 467.15-65.12L467.15-65.12L461.30-65.12L461.30-70.61L505.22-70.61L505.22-65.12L498.26-65.12Q492.22-65.12 489.20-62.83Q486.19-60.55 486.19-57.07L486.19-57.07L486.19 4.78Q486.19 18.69 481.15 29.95Q476.12 41.20 468.25 47.79L468.25 47.79Q451.96 61.15 433.85 61.15Q415.73 61.15 401.73 49.80Q387.73 38.46 387.73 23.08L387.73 23.08L387.73-57.07Q387.73-59.82 387.37-61.28Q387.00-62.74 384.99-63.93Q382.97-65.12 378.95-65.12L378.95-65.12L372.73-65.12L372.73-70.61L419.57-70.61L419.57-65.12L412.62-65.12Q408.59-65.12 406.58-63.93Q404.57-62.74 404.20-61.28Q403.84-59.82 403.84-57.07L403.84-57.07L403.84 7.35Q403.84 27.66 413.08 36.72Q422.32 45.78 440.80 45.78L440.80 45.78Q449.40 45.78 456.54 42.85Q463.68 39.92 467.98 35.89Q472.28 31.87 475.39 23.72Q478.50 15.58 478.50 4.78Z"/></g>
</svg>