<svg xmlns="http://www.w3.org/2000/svg" xmlns:xlink="http://www.w3.org/1999/xlink" version="1.1" width="1000" height="1000" viewBox="0 0 1000 1000" xml:space="preserve">
<desc>Created with Fabric.js 3.5.0</desc>
<defs>
</defs>
<rect x="0" y="0" width="100%" height="100%" fill="rgba(255,255,255,0)"/>
<g transform="matrix(1 0 0 1 463.5966 213)" style="" id="297729">
		
<path xml:space="preserve" font-family="Alex Brush" font-size="200" font-style="normal" font-weight="normal" style="stroke: none; stroke-width: 0; stroke-dasharray: none; stroke-linecap: butt; stroke-dashoffset: 0; stroke-linejoin: miter; stroke-miterlimit: 4; is-custom-font: none; font-file-url: none; fill: rgb(255,255,255); fill-rule: nonzero; opacity: 1; white-space: pre;" d="M-227.50 25.03L-227.50 25.03Q-227.50 32.23-230.70 38.63L-230.70 38.63Q-237.50 53.03-256.70 62.63Q-275.90 72.23-296.70 72.23L-296.70 72.23Q-328.30 72.23-339.70 50.63L-339.70 50.63Q-360.30 67.83-369.10 67.83L-369.10 67.83Q-370.70 67.83-371.90 67.23L-371.90 67.23Q-377.90 64.03-377.90 53.43Q-377.90 42.83-369.10 27.43Q-360.30 12.03-353.70 9.23L-353.70 9.23Q-350.70 8.23-349.10 8.23L-349.10 8.23Q-343.30 8.23-340.30 17.83L-340.30 17.83L-334.30 37.03Q-328.50 30.83-318.50 17.23L-318.50 17.23L-300.70-6.77Q-267.90-49.37-257.70-53.37L-257.70-53.37Q-254.10-54.77-250.30-54.77Q-246.50-54.77-244-53.17Q-241.50-51.57-241.50-49.17L-241.50-49.17Q-241.50-45.57-247.30-44.97L-247.30-44.97Q-253.30-41.57-270.20-25.07Q-287.10-8.57-290.30-4.17L-290.30-4.17Q-312.70 27.03-331.70 43.83L-331.70 43.83Q-319.50 68.03-295.10 68.03L-295.10 68.03Q-280.30 68.03-265.70 58.73Q-251.10 49.43-243.90 35.83L-243.90 35.83Q-240.70 30.03-240.70 22.83Q-240.70 15.63-246.40 9.13Q-252.10 2.63-260.70-0.37L-260.70-0.37Q-264.70-0.97-273.50-2.07Q-282.30-3.17-282.30-5.77L-282.30-5.77Q-282.30-6.77-281.50-7.57L-281.50-7.57Q-279.10-10.37-275.30-10.37L-275.30-10.37Q-273.10-10.37-271-9.57Q-268.90-8.77-267.70-8.37Q-266.50-7.97-264.90-7.37L-264.90-7.37Q-260.50-6.97-257.30-6.97L-257.30-6.97Q-244.10-6.97-233.30-11.17L-233.30-11.17Q-219.50-16.57-215.70-27.37L-215.70-27.37Q-213.30-34.37-213.30-39.97L-213.30-39.97Q-213.30-53.77-226.70-60.57L-226.70-60.57Q-238.30-66.57-258.50-66.57L-258.50-66.57Q-290.30-66.57-315.50-54.57L-315.50-54.57Q-328.30-48.57-339.80-36.77Q-351.30-24.97-351.30-16.57L-351.30-16.57Q-351.30-10.77-348.30-6.97L-348.30-6.97Q-347.10-5.37-344.10-2.97L-344.10-2.97Q-343.10-2.37-345.30-2.37L-345.30-2.37Q-357.70-5.17-357.70-18.97Q-357.70-32.77-343.70-44.97L-343.70-44.97Q-333.30-53.97-320.30-59.57L-320.30-59.57Q-293.30-71.17-258.90-71.17L-258.90-71.17Q-234.30-71.17-219.70-63.97L-219.70-63.97Q-202.70-55.97-202.70-39.77L-202.70-39.77Q-202.70-33.37-205.30-26.77L-205.30-26.77Q-209.50-14.77-227.10-8.57L-227.10-8.57Q-240.30-3.97-255.50-3.77L-255.50-3.77Q-243.70-3.17-235.60 4.93Q-227.50 13.03-227.50 25.03ZM-355.30 17.63L-355.30 17.63Q-355.50 17.63-356.30 18.03L-356.30 18.03Q-371.10 39.43-371.10 52.43L-371.10 52.43Q-371.10 57.83-368.50 62.23L-368.50 62.23Q-367.90 63.23-366.50 63.23L-366.50 63.23Q-360.10 63.23-341.90 45.03L-341.90 45.03L-342.50 44.23Q-350.50 17.63-355.30 17.63ZM-45.90-55.57L-45.90-55.57Q-45.90-39.77-61.30-18.37L-61.30-18.37Q-73.30-1.57-93.20 8.63Q-113.10 18.83-129.90 18.83L-129.90 18.83Q-136.10 18.83-140.30 17.43L-140.30 17.43Q-148.70 28.23-167.30 51.23L-167.30 51.23Q-160.30 61.23-142 70.03Q-123.70 78.83-110.50 78.83Q-97.30 78.83-90.90 75.23L-90.90 75.23Q-82.10 70.63-82.10 62.03L-82.10 62.03Q-82.10 59.83-82.50 57.83Q-82.90 55.83-81.20 55.83Q-79.50 55.83-78.20 58.73Q-76.90 61.63-76.90 63.83L-76.90 63.83Q-76.90 70.83-84.30 77.03L-84.30 77.03Q-93.70 84.63-109.90 84.63Q-126.10 84.63-143.50 77.03Q-160.90 69.43-172.10 56.43L-172.10 56.43Q-188.10 72.43-202.50 72.43L-202.50 72.43Q-206.90 72.43-210.10 70.83L-210.10 70.83Q-217.10 66.83-217.10 55.63Q-217.10 44.43-207.80 28.03Q-198.50 11.63-193.10 10.63L-193.10 10.63Q-189.50 10.63-184.90 18.83L-184.90 18.83L-172.30 43.23Q-161.70 29.23-150.10 12.63L-150.10 12.63Q-166.50 5.23-166.50-8.77L-166.50-8.77Q-166.50-20.37-157.10-27.57L-157.10-27.57Q-151.90-31.37-146-31.37Q-140.10-31.37-137.10-25.17L-137.10-25.17Q-136.50-23.97-137-23.67Q-137.50-23.37-137.70-23.57L-137.70-23.57Q-141.70-27.57-146.30-27.57L-146.30-27.57Q-146.50-27.57-146.70-27.57L-146.70-27.57Q-152.50-27.57-156.80-21.37Q-161.10-15.17-161.10-9.97L-161.10-9.97Q-161.10-9.37-161.10-8.77L-161.10-8.77Q-161.10 1.63-146.70 9.03L-146.70 9.03Q-144.30 5.63-139-2.27Q-133.70-10.17-130.70-14.57L-130.70-14.57Q-90.90-72.97-64.50-72.97L-64.50-72.97Q-45.90-72.97-45.90-55.57ZM-63.70-69.57L-63.70-69.57Q-73.70-69.57-88.50-52.77L-88.50-52.77Q-98.70-40.97-112.40-21.07Q-126.10-1.17-137.10 13.03L-137.10 13.03Q-134.50 13.63-131.30 13.63L-131.30 13.63Q-117.30 13.63-99.30 4.03Q-81.30-5.57-70.90-20.17L-70.90-20.17Q-52.70-45.57-52.70-58.77L-52.70-58.77Q-52.70-66.77-59.70-68.97L-59.70-68.97Q-61.50-69.57-63.70-69.57ZM-177.30 49.83L-177.30 49.83Q-182.10 43.23-187.30 32.93Q-192.50 22.63-194.20 20.63Q-195.90 18.63-196.50 18.63Q-197.10 18.63-197.30 18.63L-197.30 18.63Q-200.90 19.23-205.10 31.43Q-209.30 43.63-209.30 55.33Q-209.30 67.03-202.10 67.03L-202.10 67.03Q-196.90 67.03-189.60 61.63Q-182.30 56.23-177.30 49.83ZM-28.10 5.63L-28.10 5.63Q-25.30 5.63-25.30 12.23L-25.30 12.23Q-25.30 22.23-35.20 30.93Q-45.10 39.63-57.90 39.63L-57.90 39.63Q-66.10 39.63-73.70 35.63L-73.70 35.63Q-89.90 26.83-89.90 5.03L-89.90 5.03Q-89.90-10.37-81.50-25.17L-81.50-25.17Q-69.90-45.37-48.20-57.17Q-26.50-68.97-5.90-68.97L-5.90-68.97Q9.10-68.97 18.70-62.37L18.70-62.37Q29.50-54.97 29.50-40.37L29.50-40.37Q29.50-21.77 11.50 17.93Q-6.50 57.63-6.50 62.83L-6.50 62.83Q-6.50 64.43-5.50 63.83L-5.50 63.83Q-0.30 60.43 42.20 9.53Q84.70-41.37 101.30-53.37L101.30-53.37Q116.10-64.37 126.00-69.87Q135.90-75.37 146.30-75.37L146.30-75.37Q149.10-75.37 150.50-75.17L150.50-75.17Q155.90-74.77 155.90-69.57L155.90-69.57Q155.90-66.97 154.10-66.97L154.10-66.97Q153.90-66.97 151.30-67.87Q148.70-68.77 146.90-68.77L146.90-68.77Q118.90-68.77 71.50-18.17L71.50-18.17Q53.70 0.83 28.20 33.03Q2.70 65.23-1.90 67.83L-1.90 67.83Q-18.10 77.03-20.10 77.03L-20.10 77.03Q-20.70 77.03-20.70 75.03L-20.70 75.03Q-20.70 68.43-9.50 41.43L-9.50 41.43Q-4.90 31.03 3.90 10.23L3.90 10.23L13.10-16.77Q17.90-30.37 17.90-36.57L17.90-36.57Q17.90-50.37 9.90-57.57Q1.90-64.77-13.10-64.77Q-28.10-64.77-45.30-54.17L-45.30-54.17Q-63.90-42.17-73.10-24.57Q-82.30-6.97-82.30 5.23Q-82.30 17.43-77.30 24.43L-77.30 24.43Q-69.10 35.83-55.50 35.83L-55.50 35.83Q-45.10 35.83-37.10 28.93Q-29.10 22.03-29.10 11.43L-29.10 11.43Q-29.10 9.23-29.60 7.43Q-30.10 5.63-28.10 5.63ZM160.10 7.23L160.10 7.23Q148.10 7.23 139.90 1.73Q131.70-3.77 131.70-12.17L131.70-12.17Q131.70-22.77 145.50-33.37L145.50-33.37Q147.90-35.17 149.10-35.17Q150.30-35.17 150.30-34.37L150.30-34.37Q150.30-32.37 147.10-31.17L147.10-31.17Q135.90-22.17 135.90-12.97L135.90-12.97Q135.90-6.37 141.90-1.87Q147.90 2.63 156.90 2.63L156.90 2.63Q176.50 2.63 193.90-16.17L193.90-16.17Q202.90-25.97 202.90-38.77Q202.90-51.57 193.30-57.77L193.30-57.77Q185.30-63.37 171.70-63.37L171.70-63.37Q152.10-63.37 132.30-53.57L132.30-53.57Q107.90-41.77 88.20-16.87Q68.50 8.03 68.50 31.03L68.50 31.03Q68.50 49.23 80.90 59.13Q93.30 69.03 111.70 69.03L111.70 69.03Q132.70 69.03 152.90 58.83L152.90 58.83Q168.30 50.83 179.50 38.43L179.50 38.43Q182.70 34.83 184.50 34.83L184.50 34.83Q185.70 34.83 185.70 36.93Q185.70 39.03 183.50 41.23L183.50 41.23Q172.90 52.43 152.90 62.83L152.90 62.83Q128.30 75.83 103.40 75.83Q78.50 75.83 66.30 59.43L66.30 59.43Q58.10 48.63 58.10 33.63L58.10 33.63Q58.10 27.03 59.70 19.43L59.70 19.43Q65.10-6.17 88.10-30.37L88.10-30.37Q104.70-47.77 127.50-57.47Q150.30-67.17 170.70-67.17L170.70-67.17Q181.50-67.17 189.50-64.57L189.50-64.57Q211.30-57.77 211.30-37.17L211.30-37.17Q211.30-24.57 203.90-15.37L203.90-15.37Q185.50 7.23 160.10 7.23ZM363.50-76.57L363.50-76.57Q367.70-76.57 367.70-73.57L367.70-73.57Q367.70-61.37 334.10-3.77L334.10-3.77Q335.50 1.63 338.50 8.83L338.50 8.83L398.10-36.57Q432.30-62.57 444.30-69.97L444.30-69.97Q471.10-85.97 496.90-85.97L496.90-85.97Q504.30-85.97 510.50-83.57L510.50-83.57Q514.30-82.17 514.30-78.37Q514.30-74.57 512.30-74.57L512.30-74.57Q511.10-74.57 509.80-76.17Q508.50-77.77 502.20-77.77Q495.90-77.77 481.70-74.57L481.70-74.57Q459.30-69.57 430.90-52.17L430.90-52.17Q413.10-41.17 383.30-18.37Q353.50 4.43 340.30 13.03L340.30 13.03Q350.50 34.43 366.50 52.83L366.50 52.83Q391.10 81.43 410.70 81.43L410.70 81.43Q420.30 81.43 420.30 74.03L420.30 74.03Q420.30 72.63 420 71.23Q419.70 69.83 420.70 67.83Q421.70 65.83 423.10 65.83L423.10 65.83Q425.70 65.83 426.50 72.03L426.50 72.03Q426.70 73.03 426.70 74.03L426.70 74.03Q426.70 80.43 420.20 84.53Q413.70 88.63 404.80 88.63Q395.90 88.63 389.90 85.83L389.90 85.83Q374.10 78.03 358 58.43Q341.90 38.83 333.30 17.23L333.30 17.23Q322.30 23.63 315.10 24.23L315.10 24.23Q301.70 41.63 282.10 58.03L282.10 58.03Q271.50 67.03 259.10 72.53Q246.70 78.03 235.30 78.03L235.30 78.03Q219.10 78.03 210.30 69.93Q201.50 61.83 201.50 45.23L201.50 45.23Q201.50 37.03 204.70 30.03L204.70 30.03Q214.90 7.43 235.50-1.17L235.50-1.17Q246.90-6.17 258.20-6.17Q269.50-6.17 273.30 1.23L273.30 1.23Q274.70 3.83 274.70 6.73Q274.70 9.63 273.90 10.43Q273.10 11.23 271.70 9.03L271.70 9.03Q266.90 0.23 261.50-0.77L261.50-0.77Q257.90-1.17 256.30-1.17L256.30-1.17Q240.70-1.17 227.10 11.83L227.10 11.83Q209.50 28.83 209.50 48.63L209.50 48.63Q209.50 70.23 233.90 73.03L233.90 73.03Q234.70 73.03 235.50 73.03L235.50 73.03Q244.30 73.03 258.10 65.23L258.10 65.23Q280.50 52.43 305.90 21.23L305.90 21.23Q301.30 17.03 301.30 8.83Q301.30 0.63 307.40-6.67Q313.50-13.97 324.10-13.97L324.10-13.97Q327.10-13.97 329.70-13.37L329.70-13.37Q339.70-30.17 349.10-49.67Q358.50-69.17 358.50-72.17L358.50-72.17Q358.50-72.57 357.30-72.57Q356.10-72.57 343.40-66.27Q330.70-59.97 325.30-56.37Q319.90-52.77 312.10-45.07Q304.30-37.37 304.30-32.57L304.30-32.57Q304.30-30.37 307.40-28.17Q310.50-25.97 318.70-25.97L318.70-25.97Q319.70-25.57 319.70-24.87Q319.70-24.17 314.20-23.27Q308.70-22.37 305.50-22.37L305.50-22.37Q298.30-22.37 298.30-28.37L298.30-28.37Q298.30-35.37 306.90-45.17Q315.50-54.97 325.70-60.57L325.70-60.57Q355.50-76.57 363.50-76.57ZM331.70 13.03L331.70 13.03Q330.10 9.03 329.10 5.03L329.10 5.03Q325.10 10.83 321.10 16.43L321.10 16.43Q323.10 16.43 324.70 16.13Q326.30 15.83 331.70 13.03ZM324.10-4.17L324.10-4.17Q321.70-5.17 318.80-5.17Q315.90-5.17 313-1.57Q310.10 2.03 310.10 6.13Q310.10 10.23 312.30 13.03L312.30 13.03Q322.10-0.97 324.10-4.17Z"/></g>
</svg>